<svg xmlns="http://www.w3.org/2000/svg" viewBox="0 0 241.92 114.56"><defs><style>.cls-1{fill:#5e5a57;}.cls-2{fill:#d7362e;}.cls-3{fill:#cb2d83;}.cls-4{fill:#fac202;}.cls-5{fill:#ef8e36;}.cls-6{fill:#b0241a;}.cls-7{fill:#e6591c;}</style></defs><g id="Calque_2" data-name="Calque 2"><g id="Calque_1-2" data-name="Calque 1"><path class="cls-1" d="M144.57,42.59c0-7.94-5.83-13.69-13.89-13.69h-9.13V56.28h9.13C138.73,56.28,144.57,50.53,144.57,42.59ZM125,53.06V32.12h5.59a10.11,10.11,0,0,1,10.49,10.47,10.11,10.11,0,0,1-10.49,10.47Z"/><rect class="cls-1" x="149.64" y="35.16" width="3.33" height="21.13"/><rect class="cls-1" x="149.5" y="27.68" width="3.6" height="3.81"/><rect class="cls-1" x="186.02" y="35.16" width="3.33" height="21.13"/><rect class="cls-1" x="185.88" y="27.68" width="3.6" height="3.81"/><path class="cls-1" d="M197,48.9c0,4.58,2.8,7.38,7.34,7.38h2.73V53.21h-2.3c-2.88,0-4.45-1.58-4.45-4.42V38.16H207v-3h-6.63V30.68h-.52l-6.52,6.89v.59H197Z"/><path class="cls-1" d="M220.52,56.75a10.66,10.66,0,0,0,8.28-3.67l.36,3.2h2.75V35.16h-2.65l-.41,3.23a11,11,0,0,0-19.27,7.33A10.74,10.74,0,0,0,220.52,56.75Zm.25-18.84a7.55,7.55,0,0,1,7.74,7.81,7.77,7.77,0,1,1-15.53,0A7.61,7.61,0,0,1,220.77,37.91Z"/><rect class="cls-1" x="238.6" y="27.62" width="3.33" height="28.67"/><path class="cls-1" d="M139,65.68,127.78,93.07h3.65l2.68-6.56h13.16L150,93.07h3.72L142.19,65.68Zm-3.6,17.68,5.25-13,5.34,13Z"/><path class="cls-1" d="M174.8,75.16l-.54-3.22H171.9V93.07h3.32V81.59c0-4.1,2.18-6.61,6-6.61h2.16V71.83h-1.87A7.68,7.68,0,0,0,174.8,75.16Z"/><rect class="cls-1" x="187" y="71.94" width="3.33" height="21.13"/><rect class="cls-1" x="186.86" y="64.47" width="3.6" height="3.81"/><path class="cls-1" d="M206.32,90.31a7.81,7.81,0,0,1,0-15.61,7.48,7.48,0,0,1,7,4.36h3.3a10.3,10.3,0,0,0-10.27-7.58,11,11,0,0,0,0,22,10.39,10.39,0,0,0,10.31-7.69h-3.37A7.41,7.41,0,0,1,206.32,90.31Z"/><path class="cls-1" d="M238.86,75.18a11,11,0,1,0,0,14.69l.35,3.2h2.75V71.94h-2.64Zm-8.08,15.13a7.81,7.81,0,1,1,7.75-7.8A7.6,7.6,0,0,1,230.78,90.31Z"/><rect class="cls-1" x="154.09" y="79.37" width="4.16" height="2.79"/><path class="cls-1" d="M177.11,35.16l-.53,3.28a10.51,10.51,0,0,0-8.2-3.75,10.46,10.46,0,0,0,0,20.92,10.58,10.58,0,0,0,7.69-3.14v1.29c0,4.68-2.87,7.49-7.1,7.49l-.95,0h-3a9.36,9.36,0,0,0-3.34.53c-2.36.89-3.44,3-3.44,6.2V73.1h-4.16v2.79h4.16v23h3.33V82.16h6.47V79.37h-6.47V75.89h6.47V73.1h-6.58V68c0-3,.45-4.13,3.44-4.13s3.23,0,5.33,0c4.52,0,9.09-3.74,9.09-10.55V35.16Zm-8.37,17.26h0a7.28,7.28,0,1,1,7.3-7.26A7,7,0,0,1,168.74,52.42Z"/><rect class="cls-2" x="193.22" y="40.55" width="13.96" height="2.79"/><rect class="cls-3" x="116.52" y="42.09" width="13.96" height="2.79"/><rect class="cls-4" x="154.09" y="79.37" width="13.96" height="2.79"/><path class="cls-4" d="M50.25,64.66A14.33,14.33,0,0,1,40.11,40.2,2,2,0,0,1,42.94,43a10.32,10.32,0,0,0,7.31,17.63,2,2,0,0,1,0,4Z"/><path class="cls-3" d="M25.45,52.33a2,2,0,0,1-2-2A26.8,26.8,0,0,1,75.22,40.6a2,2,0,1,1-3.73,1.45,22.8,22.8,0,0,0-44,8.28A2,2,0,0,1,25.45,52.33Z"/><path class="cls-5" d="M56.44,76.35A2,2,0,0,1,56,72.41,22.74,22.74,0,0,0,73,52a2,2,0,0,1,4,.28,26.73,26.73,0,0,1-20,24A2.14,2.14,0,0,1,56.44,76.35Z"/><path class="cls-1" d="M38.36,49.06a2.5,2.5,0,0,1-.54-.07,2,2,0,0,1-1.39-2.46A14.36,14.36,0,0,1,50.25,36a2,2,0,0,1,0,4,10.36,10.36,0,0,0-10,7.59A2,2,0,0,1,38.36,49.06Z"/><path class="cls-3" d="M50.25,64.66a14.21,14.21,0,0,1-8.53-2.81,2,2,0,0,1,2.38-3.21,10.28,10.28,0,0,0,6.15,2,2,2,0,0,1,0,4Z"/><path class="cls-6" d="M59.57,60.41a2,2,0,0,1-1.51-3.31,10.37,10.37,0,0,0,2.52-6.77,10.24,10.24,0,0,0-4.12-8.25,2,2,0,1,1,2.41-3.19,14.21,14.21,0,0,1,5.71,11.44,14.39,14.39,0,0,1-3.5,9.39A2,2,0,0,1,59.57,60.41Z"/><path class="cls-5" d="M26.16,58.26a2,2,0,0,1-1.94-1.53A26.83,26.83,0,0,1,37.89,26.55a2,2,0,0,1,1.85,3.55A22.73,22.73,0,0,0,27.45,50.33a23.09,23.09,0,0,0,.65,5.45,2,2,0,0,1-1.46,2.42A2,2,0,0,1,26.16,58.26Z"/><path class="cls-7" d="M50.25,77.13a26.81,26.81,0,0,1-7.92-1.19,2,2,0,1,1,1.18-3.82,22.83,22.83,0,0,0,6.74,1,22.59,22.59,0,0,0,13.94-4.76,2,2,0,1,1,2.45,3.16A26.5,26.5,0,0,1,50.25,77.13Z"/><path class="cls-4" d="M13.41,51.81a2,2,0,0,1-2-2A39.09,39.09,0,0,1,30.47,16.07a2,2,0,1,1,2.07,3.43A35.12,35.12,0,0,0,15.41,49.81,2,2,0,0,1,13.41,51.81Z"/><path class="cls-3" d="M50.77,89.17a2,2,0,1,1,0-4A35.31,35.31,0,0,0,82,66.47a2,2,0,1,1,3.53,1.89A39.33,39.33,0,0,1,50.77,89.17Z"/><path class="cls-7" d="M2,39.91a2,2,0,0,1-.47-.06A2,2,0,0,1,.06,37.43,52.45,52.45,0,0,1,34.83.1a2,2,0,1,1,1.22,3.81A48.45,48.45,0,0,0,3.94,38.38,2,2,0,0,1,2,39.91Z"/><path class="cls-4" d="M50.77,102c-1.46,0-2.94-.06-4.39-.18a2,2,0,0,1,.33-4c1.34.11,2.71.17,4.06.17a48.07,48.07,0,0,0,26.12-7.68,2,2,0,0,1,2.17,3.36A52.05,52.05,0,0,1,50.77,102Z"/><path class="cls-1" d="M96.6,31.3a2,2,0,0,1-1.83-1.18,48.41,48.41,0,0,0-6.89-11.06A2,2,0,0,1,91,16.51a52.28,52.28,0,0,1,7.46,12,2,2,0,0,1-1,2.64A2,2,0,0,1,96.6,31.3Z"/><path class="cls-1" d="M50.77,114.56a2,2,0,0,1,0-4A60.7,60.7,0,0,0,67,108.38,2,2,0,1,1,68,112.24,64.91,64.91,0,0,1,50.77,114.56Z"/><path class="cls-6" d="M86.71,62.08a2.09,2.09,0,0,1-.55-.08,2,2,0,0,1-1.37-2.47A35.38,35.38,0,0,0,28.44,22.38a2,2,0,0,1-2.53-3.1A39.38,39.38,0,0,1,88.63,60.63,2,2,0,0,1,86.71,62.08Z"/></g></g></svg>